<svg viewBox="0 0 64 64" xmlns="http://www.w3.org/2000/svg" id="Clipboard--Streamline-Emoji" height="64" width="64">
  <desc>
    Clipboard Streamline Emoji: https://streamlinehq.com
  </desc>
  <path d="M13.066666666666666 57.959999999999994a18.93333333333333 2.466666666666667 0 1 0 37.86666666666666 0 18.93333333333333 2.466666666666667 0 1 0 -37.86666666666666 0Z" fill="#45413c" opacity=".15" stroke-width="1"></path>
  <path d="m9.986666666666666 3.5733333333333333 44.04 0 0 53.53333333333333 -44.04 0Z" fill="#debb7e" stroke-width="1"></path>
  <path d="M49.33333333333333 3.5733333333333333H14.666666666666666a4.64 4.64 0 0 0 -4.68 4.64v5.333333333333333A4.64 4.64 0 0 1 14.666666666666666 8.92h34.666666666666664a4.64 4.64 0 0 1 4.64 4.653333333333333v-5.333333333333333A4.64 4.64 0 0 0 49.33333333333333 3.5733333333333333Z" fill="#f0d5a8" stroke-width="1"></path>
  <path d="m9.986666666666666 3.5733333333333333 44.04 0 0 53.53333333333333 -44.04 0Z" fill="none" stroke="#45413c" stroke-linecap="round" stroke-linejoin="round" stroke-width="1"></path>
  <path d="m15.52 11.599999999999998 32.959999999999994 0 0 40.05333333333333 -32.959999999999994 0Z" fill="#fffef2" stroke-width="1"></path>
  <path d="M46.84 11.599999999999998H17.159999999999997a1.6533333333333333 1.6533333333333333 0 0 0 -1.64 1.6533333333333333v5.253333333333333a1.64 1.64 0 0 1 1.64 -1.6533333333333333h29.68a1.64 1.64 0 0 1 1.64 1.6533333333333333V13.253333333333332a1.6533333333333333 1.6533333333333333 0 0 0 -1.64 -1.6533333333333333Z" fill="#ffffff" stroke-width="1"></path>
  <path d="m15.52 11.599999999999998 32.959999999999994 0 0 40.05333333333333 -32.959999999999994 0Z" fill="none" stroke="#45413c" stroke-linecap="round" stroke-linejoin="round" stroke-width="1"></path>
  <path d="M34.666666666666664 8.559999999999999a2.6666666666666665 2.6666666666666665 0 1 0 -5.4399999999999995 0h-4.586666666666666a1.6533333333333333 1.6533333333333333 0 0 0 -1.64 1.6533333333333333V12.799999999999999a1.64 1.64 0 0 0 1.64 1.64h14.666666666666666a1.64 1.64 0 0 0 1.6933333333333334 -1.64V10.213333333333333a1.6533333333333333 1.6533333333333333 0 0 0 -1.64 -1.6533333333333333Z" fill="#daedf7" stroke-width="1"></path>
  <path d="M39.36 8.559999999999999H34.666666666666664a2.6666666666666665 2.6666666666666665 0 1 0 -5.4399999999999995 0h-4.586666666666666a1.6533333333333333 1.6533333333333333 0 0 0 -1.64 1.6533333333333333v2.6666666666666665a1.64 1.64 0 0 1 1.64 -1.5733333333333333H29.333333333333332a2.6666666666666665 2.6666666666666665 0 1 1 5.4399999999999995 0h4.64a1.64 1.64 0 0 1 1.64 1.5733333333333333v-2.6666666666666665a1.6533333333333333 1.6533333333333333 0 0 0 -1.6933333333333334 -1.6533333333333333Z" fill="#e8f4fa" stroke-width="1"></path>
  <path d="M34.666666666666664 8.559999999999999a2.6666666666666665 2.6666666666666665 0 1 0 -5.4399999999999995 0h-4.586666666666666a1.6533333333333333 1.6533333333333333 0 0 0 -1.64 1.6533333333333333V12.799999999999999a1.64 1.64 0 0 0 1.64 1.64h14.666666666666666a1.64 1.64 0 0 0 1.6933333333333334 -1.64V10.213333333333333a1.6533333333333333 1.6533333333333333 0 0 0 -1.64 -1.6533333333333333Z" fill="none" stroke="#45413c" stroke-linecap="round" stroke-linejoin="round" stroke-width="1"></path>
  <path d="m20.52 19.493333333333332 8.333333333333332 0" fill="none" stroke="#45413c" stroke-linecap="round" stroke-linejoin="round" stroke-width="1"></path>
  <path d="m20.52 43.57333333333333 8.333333333333332 0" fill="none" stroke="#45413c" stroke-linecap="round" stroke-linejoin="round" stroke-width="1"></path>
  <path d="m20.52 24.426666666666666 19.346666666666664 0" fill="none" stroke="#45413c" stroke-linecap="round" stroke-linejoin="round" stroke-width="1"></path>
  <path d="m20.52 28.85333333333333 19.346666666666664 0" fill="none" stroke="#45413c" stroke-linecap="round" stroke-linejoin="round" stroke-width="1"></path>
  <path d="m20.52 33.69333333333333 19.346666666666664 0" fill="none" stroke="#45413c" stroke-linecap="round" stroke-linejoin="round" stroke-width="1"></path>
</svg>
